<svg width="1024" height="1024" viewBox="0 0 1024 1024" fill="none" xmlns="http://www.w3.org/2000/svg">
<rect width="1024" height="1024" rx="228" fill="black"/>
<path d="M768.496 479V764C723.829 778.667 681.496 789.333 641.496 796C601.496 802.667 567.829 806 540.496 806C449.829 806 378.829 782.333 327.496 735C276.163 687.667 250.496 615 250.496 517C250.496 417 277.496 342.333 331.496 293C385.496 243 461.496 218 559.496 218C610.829 218 672.496 225.667 744.496 241C744.496 254.333 743.163 274.333 740.496 301C737.829 327 735.163 345.333 732.496 356L696.496 355C652.496 353.667 618.163 353 593.496 353C519.496 353 479.163 357.333 472.496 366C461.829 378.667 454.163 398.333 449.496 425C445.496 451.667 443.496 477.333 443.496 502C443.496 546.667 448.496 581.333 458.496 606C468.496 630.667 483.829 648 504.496 658C525.163 668 553.163 673 588.496 673H592.496V479H768.496Z" fill="white"/>
</svg>
